# xmcd CD database file
#
# Track frame offsets:
#	150
#	21245
#	39426
#	67161
#	84204
#	104980
#	125381
#	141283
#	170399
#
# Disc length: 3020 seconds
#
# Revision: 0
# Processed by: cddbd v1.5PL3 Copyright (c) Steve Scherf et al.
# Submitted via: CDex 1.50
#
DISCID=7c0bca09
DTITLE=Jazz Romantic - Various artist
DYEAR=2002
DGENRE=Jazz
TTITLE0=Brad Collection/ N.Y Streets
TTITLE1=P.J. Jobs/Chicago is night
TTITLE2=Modern Jazz/Strong
TTITLE3=Anrew Moldon/Only is love
TTITLE4=D.Donglas, G.Cahen, J.Zorn/Paran
TTITLE5=Jazz Fish/In your memory
TTITLE6=Chess/Moonfight song
TTITLE7=Alan Cru/Sunset beach
TTITLE8=Gravitz/Neo Joint
EXTD=YEAR: 2002
EXTT0=
EXTT1=
EXTT2=
EXTT3=
EXTT4=
EXTT5=
EXTT6=
EXTT7=
EXTT8=
PLAYORDER=
